# xmcd
#
# Track frame offsets:
#	150
#	29306
#	59033
#	85167
#	104222
#	128182
#	150275
#	177105
#	202095
#	219535
#
# Disc length: 3285 seconds
#
# Revision: 4
# Processed by: cddbd v1.5.2PL0 Copyright (c) Steve Scherf et al.
# Submitted via: EZCDAudioConverter 8.0.2.1
#
DISCID=8e0cd30a
DTITLE=Thanh Tuyền - Đau Xót Lý Chim Quyên
DYEAR=1998
DGENRE=Miscellaneous
TTITLE0=Thanh Tuyền - Đau Xót Lý Chim Quyên
TTITLE1=Thanh Tuyền - Kỷ niệm nào buồn
TTITLE2=Thanh Tuyen, Quang Bình - Đến đây thì ở lại đây
TTITLE3=Thanh Tuyền - Trường cũ tình xưa
TTITLE4=Thanh Tuyền, Chế Linh - Mưa bụi
TTITLE5=Thanh Tuyền - Em còn nhớ mùa xuân
TTITLE6=Thanh Tuyen, Quang Bình - Căn nhà ngoại ô
TTITLE7=Thanh Tuyền - Mưa lệ
TTITLE8=Thanh Tuyền - Ngày vầ
TTITLE9=Thanh Tuyền - Đất mũi Cà mau
EXTD=
EXTT0=
EXTT1=
EXTT2=
EXTT3=
EXTT4=
EXTT5=
EXTT6=
EXTT7=
EXTT8=
EXTT9=
PLAYORDER=
